<svg width="81" height="80" viewBox="0 0 81 80" fill="none" xmlns="http://www.w3.org/2000/svg">
<path d="M16.5 0.5H64.5C73.0604 0.5 80 7.43959 80 16V64C80 72.5604 73.0604 79.5 64.5 79.5H16.5C7.93959 79.5 1 72.5604 1 64V16C1 7.43959 7.93959 0.5 16.5 0.5Z" fill="#1D1F21"/>
<path d="M16.5 0.5H64.5C73.0604 0.5 80 7.43959 80 16V64C80 72.5604 73.0604 79.5 64.5 79.5H16.5C7.93959 79.5 1 72.5604 1 64V16C1 7.43959 7.93959 0.5 16.5 0.5Z" stroke="#27292C"/>
<path d="M50.6799 21.6401C48.8405 20.1273 46.6865 19.0442 44.3752 18.4698C42.0639 17.8955 39.6535 17.8443 37.3199 18.3201C34.2126 18.9478 31.3619 20.4843 29.1292 22.7347C26.8966 24.9851 25.3828 27.848 24.7799 30.9601C24.3396 33.2936 24.4196 35.6954 25.0142 37.9944C25.6088 40.2934 26.7034 42.4328 28.2199 44.2601C29.6273 45.8483 30.434 47.8792 30.4999 50.0001V56.0001C30.4999 57.5914 31.132 59.1176 32.2572 60.2428C33.3825 61.368 34.9086 62.0001 36.4999 62.0001H44.4999C46.0912 62.0001 47.6173 61.368 48.7425 60.2428C49.8677 59.1176 50.4999 57.5914 50.4999 56.0001V50.3801C50.567 48.0385 51.4273 45.789 52.9399 44.0001C55.5901 40.7217 56.8394 36.5298 56.4162 32.3354C55.993 28.141 53.9316 24.2831 50.6799 21.6001V21.6401ZM46.4999 56.0001C46.4999 56.5306 46.2892 57.0393 45.9141 57.4144C45.539 57.7894 45.0303 58.0001 44.4999 58.0001H36.4999C35.9695 58.0001 35.4607 57.7894 35.0857 57.4144C34.7106 57.0393 34.4999 56.5306 34.4999 56.0001V54.0001H46.4999V56.0001ZM49.8399 41.5201C47.8289 43.9053 46.6556 46.8842 46.4999 50.0001H42.4999V44.0001C42.4999 43.4697 42.2892 42.961 41.9141 42.5859C41.539 42.2109 41.0303 42.0001 40.4999 42.0001C39.9695 42.0001 39.4607 42.2109 39.0857 42.5859C38.7106 42.961 38.4999 43.4697 38.4999 44.0001V50.0001H34.4999C34.4471 46.9363 33.3138 43.9897 31.2999 41.6801C29.9712 40.0881 29.0777 38.179 28.7065 36.1388C28.3353 34.0987 28.4992 31.9972 29.1821 30.0392C29.8649 28.0812 31.0435 26.3336 32.6029 24.9668C34.1623 23.6 36.0493 22.6605 38.0799 22.2401C39.825 21.8808 41.6282 21.9146 43.3586 22.3391C45.089 22.7635 46.7032 23.568 48.084 24.694C49.4647 25.8201 50.5774 27.2395 51.3412 28.8492C52.1051 30.4589 52.5009 32.2184 52.4999 34.0001C52.5147 36.7399 51.5741 39.3991 49.8399 41.5201Z" fill="#F4F5F6"/>
</svg>
