<svg width="105" height="34" viewBox="0 0 105 34" fill="none" xmlns="http://www.w3.org/2000/svg">
<path d="M15.7886 0.345904C15.7886 0.0401635 16.1556 -0.114433 16.3747 0.098822L16.6424 0.359631C26.0419 9.51039 25.9141 24.6513 16.361 33.6416C16.1438 33.8455 15.789 33.6923 15.7886 33.3945V0.345904ZM7.20519 3.95331C7.20519 3.66088 7.54789 3.50431 7.76937 3.69524L7.97664 3.87232C16.0197 10.8081 15.9164 23.3054 7.75838 30.1056C7.53894 30.2882 7.2057 30.1316 7.20519 29.8462V3.95331ZM57.5043 12.5518C59.1543 12.5518 60.4831 12.9687 61.4906 13.8023C62.5154 14.6187 63.1673 15.7483 63.4452 17.1901H60.553C60.3793 16.5649 60.0233 16.0696 59.4851 15.7048C58.964 15.34 58.2946 15.1571 57.4782 15.1571C56.8877 15.1572 56.3227 15.3139 55.7843 15.6266C55.2634 15.9392 54.8377 16.4084 54.5077 17.0336C54.1952 17.6414 54.0397 18.4056 54.0396 19.3259C54.0396 20.2292 54.1951 20.9944 54.5077 21.6197C54.8377 22.2449 55.2633 22.7228 55.7843 23.0528C56.3227 23.3654 56.8877 23.5208 57.4782 23.5209C58.312 23.5209 58.9813 23.3393 59.4851 22.9745C59.9887 22.6098 60.3446 22.1057 60.553 21.4632H63.4452C63.0978 22.8874 62.4197 24.0159 61.4123 24.8496C60.4048 25.6833 59.1023 26.1001 57.5043 26.1001C56.3058 26.1001 55.2283 25.8227 54.273 25.2669C53.3353 24.7111 52.5972 23.9295 52.0589 22.9224C51.5204 21.8975 51.2517 20.6982 51.2517 19.3259C51.2518 17.9539 51.5205 16.7643 52.0589 15.757C52.6147 14.7495 53.3611 13.9669 54.2991 13.4111C55.237 12.8379 56.3058 12.5518 57.5043 12.5518ZM85.4671 12.5518C86.7177 12.5518 87.8214 12.8293 88.7767 13.385C89.7494 13.9408 90.5045 14.7321 91.043 15.757C91.5988 16.7644 91.8775 17.9538 91.8776 19.3259C91.8776 20.6982 91.5988 21.8975 91.043 22.9224C90.4871 23.9296 89.7231 24.7112 88.7506 25.2669C87.7952 25.8227 86.6917 26.1001 85.4411 26.1001C84.2081 26.1 83.1054 25.8226 82.1329 25.2669C81.1602 24.7111 80.395 23.9298 79.8392 22.9224C79.2833 21.8975 79.0059 20.6982 79.0059 19.3259C79.006 17.954 79.2835 16.7643 79.8392 15.757C80.395 14.7321 81.1602 13.9408 82.1329 13.385C83.1054 12.8294 84.2169 12.5519 85.4671 12.5518ZM99.3449 12.5518C100.925 12.5518 102.15 12.9079 103.018 13.6197C103.887 14.3318 104.391 15.3049 104.53 16.538H101.872C101.802 16.0171 101.534 15.6088 101.065 15.3136C100.596 15.0009 100.014 14.8441 99.3189 14.8441C98.6067 14.8442 98.0418 14.9835 97.625 15.2614C97.2084 15.5219 97.0006 15.8694 97.0004 16.3033C97.0004 17.2413 98.0081 17.8148 100.023 18.0233C100.978 18.1275 101.829 18.3105 102.576 18.571C103.323 18.8142 103.914 19.2048 104.348 19.7432C104.782 20.2642 104.999 21.0025 104.999 21.9574C105.016 22.739 104.791 23.4433 104.322 24.0686C103.871 24.6939 103.236 25.189 102.42 25.5538C101.621 25.9185 100.683 26.1001 99.6057 26.1001C97.9035 26.1001 96.5487 25.7008 95.5412 24.9018C94.5339 24.1029 93.9603 23.0439 93.8213 21.724H96.6613C96.7656 22.3315 97.0696 22.8259 97.5728 23.2079C98.0939 23.59 98.7807 23.7817 99.6318 23.7817C100.448 23.7816 101.074 23.6161 101.508 23.2861C101.959 22.9388 102.185 22.5392 102.185 22.0878C102.185 21.428 101.916 20.9761 101.378 20.7329C100.857 20.4898 100.083 20.3082 99.058 20.1866C98.1723 20.0824 97.3647 19.882 96.6353 19.5868C95.9231 19.2741 95.3583 18.8573 94.9414 18.3362C94.5245 17.7978 94.3168 17.1284 94.3168 16.3294C94.3169 15.2006 94.7598 14.2883 95.6456 13.5936C96.5314 12.8991 97.7646 12.5518 99.3449 12.5518ZM49.1762 10.0247H40.2923V15.3397H48.3952V17.7885H40.2923V23.3122H49.1762V25.7885H37.5304V7.54973H49.1762V10.0247ZM68.229 14.792C68.5764 14.1495 69.1328 13.6206 69.8968 13.2038C70.6611 12.7696 71.5208 12.5518 72.4761 12.5518C74.0742 12.5518 75.2909 13.0382 76.1247 14.0109C76.9583 14.9663 77.3752 16.3474 77.3752 18.1537V25.7885H74.6134V18.5449C74.6134 17.4681 74.3519 16.6344 73.8309 16.0439C73.3099 15.4534 72.5894 15.1572 71.669 15.1571C70.7136 15.1571 69.8962 15.4794 69.2187 16.1221C68.5591 16.7648 68.229 17.6945 68.229 18.91V25.7885H65.4672V7.02811H68.229V14.792ZM0.182566 10.2319C7.03399 12.2976 7.05104 22.033 0.181194 24.0356C0.0913484 24.0617 0.000652164 23.9945 0 23.9011V10.3678C1.22534e-06 10.2732 0.0919477 10.2049 0.182566 10.2319ZM85.4671 15.1832C84.8074 15.1833 84.1999 15.3315 83.6442 15.6266C83.0884 15.9218 82.6368 16.3735 82.2894 16.9814C81.9594 17.5893 81.7939 18.3707 81.7939 19.3259C81.7939 20.7502 82.1497 21.8015 82.8618 22.479C83.5912 23.1389 84.4512 23.4686 85.4411 23.4687C86.101 23.4687 86.7096 23.3219 87.2654 23.0267C87.821 22.7315 88.2641 22.2795 88.5941 21.6719C88.9415 21.0465 89.1157 20.2639 89.1157 19.3259C89.1157 18.3707 88.9415 17.5893 88.5941 16.9814C88.2641 16.3735 87.8212 15.9219 87.2654 15.6266C86.7269 15.3313 86.1272 15.1832 85.4671 15.1832Z" fill="white"/>
</svg>
