<svg width="80" height="80" viewBox="0 0 80 80" fill="none" xmlns="http://www.w3.org/2000/svg">
<path d="M16 0.5H64C72.5604 0.5 79.5 7.43959 79.5 16V64C79.5 72.5604 72.5604 79.5 64 79.5H16C7.43959 79.5 0.5 72.5604 0.5 64V16C0.5 7.43959 7.43959 0.5 16 0.5Z" fill="#1D1F21"/>
<path d="M16 0.5H64C72.5604 0.5 79.5 7.43959 79.5 16V64C79.5 72.5604 72.5604 79.5 64 79.5H16C7.43959 79.5 0.5 72.5604 0.5 64V16C0.5 7.43959 7.43959 0.5 16 0.5Z" stroke="#27292C"/>
<path d="M57.28 47.5438C58.3824 46.2861 58.9933 44.6723 59 42.9998C59 41.1433 58.2625 39.3628 56.9497 38.0501C55.637 36.7373 53.8565 35.9998 52 35.9998C50.1435 35.9998 48.363 36.7373 47.0503 38.0501C45.7375 39.3628 45 41.1433 45 42.9998C45.0067 44.6723 45.6176 46.2861 46.72 47.5438C45.2799 48.4365 44.0909 49.6812 43.2651 51.1607C42.4393 52.6401 42.0039 54.3055 42 55.9998C42 56.5303 42.2107 57.039 42.5858 57.4141C42.9609 57.7891 43.4696 57.9998 44 57.9998C44.5304 57.9998 45.0391 57.7891 45.4142 57.4141C45.7893 57.039 46 56.5303 46 55.9998C46 54.4085 46.6321 52.8824 47.7574 51.7572C48.8826 50.632 50.4087 49.9998 52 49.9998C53.5913 49.9998 55.1174 50.632 56.2426 51.7572C57.3679 52.8824 58 54.4085 58 55.9998C58 56.5303 58.2107 57.039 58.5858 57.4141C58.9609 57.7891 59.4696 57.9998 60 57.9998C60.5304 57.9998 61.0391 57.7891 61.4142 57.4141C61.7893 57.039 62 56.5303 62 55.9998C61.9961 54.3055 61.5607 52.6401 60.7349 51.1607C59.9091 49.6812 58.7201 48.4365 57.28 47.5438ZM52 45.9998C51.4067 45.9998 50.8266 45.8239 50.3333 45.4942C49.8399 45.1646 49.4554 44.6961 49.2284 44.1479C49.0013 43.5997 48.9419 42.9965 49.0576 42.4146C49.1734 41.8326 49.4591 41.2981 49.8787 40.8785C50.2982 40.459 50.8328 40.1732 51.4147 40.0575C51.9967 39.9417 52.5999 40.0011 53.148 40.2282C53.6962 40.4553 54.1648 40.8398 54.4944 41.3331C54.8241 41.8265 55 42.4065 55 42.9998C54.9989 43.7952 54.6825 44.5576 54.1202 45.12C53.5578 45.6824 52.7953 45.9988 52 45.9998ZM29.586 31.4138L33.586 35.4138C33.9632 35.7782 34.4684 35.9797 34.9928 35.9752C35.5172 35.9706 36.0188 35.7603 36.3896 35.3895C36.7605 35.0187 36.9708 34.517 36.9753 33.9926C36.9799 33.4682 36.7783 32.963 36.414 32.5858L35.828 31.9998H44.172L43.586 32.5858C43.395 32.7703 43.2426 32.991 43.1378 33.235C43.033 33.479 42.9778 33.7415 42.9755 34.007C42.9732 34.2726 43.0238 34.536 43.1244 34.7817C43.2249 35.0275 43.3734 35.2508 43.5612 35.4386C43.749 35.6264 43.9723 35.7749 44.2181 35.8755C44.4639 35.976 44.7272 36.0266 44.9928 36.0243C45.2584 36.022 45.5208 35.9669 45.7648 35.862C46.0088 35.7572 46.2295 35.6049 46.414 35.4138L50.414 31.4138C50.787 31.0378 50.9963 30.5295 50.9963 29.9998C50.9963 29.4702 50.787 28.9619 50.414 28.5858L46.414 24.5858C46.0368 24.2215 45.5316 24.0199 45.0072 24.0245C44.4828 24.029 43.9812 24.2394 43.6104 24.6102C43.2395 24.981 43.0292 25.4826 43.0247 26.007C43.0201 26.5314 43.2217 27.0366 43.586 27.4138L44.172 27.9998H35.828L36.414 27.4138C36.7783 27.0366 36.9799 26.5314 36.9753 26.007C36.9708 25.4826 36.7605 24.981 36.3896 24.6102C36.0188 24.2394 35.5172 24.029 34.9928 24.0245C34.4684 24.0199 33.9632 24.2215 33.586 24.5858L29.586 28.5858C29.213 28.9619 29.0037 29.4702 29.0037 29.9998C29.0037 30.5295 29.213 31.0378 29.586 31.4138ZM33.28 47.5438C34.3824 46.2861 34.9933 44.6723 35 42.9998C35 41.1433 34.2625 39.3628 32.9497 38.0501C31.637 36.7373 29.8565 35.9998 28 35.9998C26.1435 35.9998 24.363 36.7373 23.0503 38.0501C21.7375 39.3628 21 41.1433 21 42.9998C21.0067 44.6723 21.6176 46.2861 22.72 47.5438C21.2799 48.4365 20.0909 49.6812 19.2651 51.1607C18.4393 52.6401 18.0039 54.3055 18 55.9998C18 56.5303 18.2107 57.039 18.5858 57.4141C18.9609 57.7891 19.4696 57.9998 20 57.9998C20.5304 57.9998 21.0391 57.7891 21.4142 57.4141C21.7893 57.039 22 56.5303 22 55.9998C22 54.4085 22.6321 52.8824 23.7574 51.7572C24.8826 50.632 26.4087 49.9998 28 49.9998C29.5913 49.9998 31.1174 50.632 32.2426 51.7572C33.3679 52.8824 34 54.4085 34 55.9998C34 56.5303 34.2107 57.039 34.5858 57.4141C34.9609 57.7891 35.4696 57.9998 36 57.9998C36.5304 57.9998 37.0391 57.7891 37.4142 57.4141C37.7893 57.039 38 56.5303 38 55.9998C37.9961 54.3055 37.5607 52.6401 36.7349 51.1607C35.9091 49.6812 34.7201 48.4365 33.28 47.5438ZM28 45.9998C27.4067 45.9998 26.8266 45.8239 26.3333 45.4942C25.8399 45.1646 25.4554 44.6961 25.2284 44.1479C25.0013 43.5997 24.9419 42.9965 25.0576 42.4146C25.1734 41.8326 25.4591 41.2981 25.8787 40.8785C26.2982 40.459 26.8328 40.1732 27.4147 40.0575C27.9967 39.9417 28.5999 40.0011 29.1481 40.2282C29.6962 40.4553 30.1648 40.8398 30.4944 41.3331C30.8241 41.8265 31 42.4065 31 42.9998C30.9989 43.7952 30.6825 44.5576 30.1202 45.12C29.5578 45.6824 28.7953 45.9988 28 45.9998Z" fill="#F4F5F6"/>
</svg>
