<svg width="39" height="16" viewBox="0 0 39 16" fill="none" xmlns="http://www.w3.org/2000/svg">
<path d="M9.4906 6.4948V4.77225H1.77083V6.4948H4.65855V12.8864C4.65855 13.6547 4.02673 14.2774 3.24735 14.2774C2.46798 14.2774 1.83617 13.6547 1.83617 12.8864V12.0429H0V12.7163C0 14.5298 1.49128 16 3.33088 16C5.17045 16 6.66173 14.5298 6.66173 12.7163V6.4948H9.4906Z" fill="white"/>
<path d="M14.9032 10.9115H11.7421L13.6341 6.4948H14.9032V4.77225H12.1911L7.44387 15.8547H9.6247L11.0043 12.634H14.9032V15.8547H16.9064V6.4948H14.9032V10.9115Z" fill="white"/>
<path d="M25.8581 13.8008L22.3589 4.77303H19.0082V15.8539H21.0112V6.81858L24.5133 15.8539H27.861V4.77303H25.8581V13.8008Z" fill="white"/>
<path d="M33.9909 11.0599V9.28901C32.2388 9.28901 30.8183 7.88867 30.8183 6.16121V6.13561H28.9817C28.9817 8.85636 31.2201 11.0617 33.9801 11.0599H33.9909Z" fill="white"/>
<path d="M36.0121 3.41381L37.7681 2.53767V0H30.8177V1.72229H35.8581L32.4854 3.32848L32.4856 3.32899V4.77303H33.9908C35.7432 4.77303 37.1637 6.17336 37.1637 7.90057V7.94893C37.1637 9.67639 35.7432 11.0767 33.9908 11.0767V12.8476H34.0079C36.7655 12.8458 39 10.6418 39 7.92333C39 5.90778 37.7713 4.17592 36.0121 3.41381Z" fill="white"/>
<path d="M30.8177 15.8324H37.7681V14.1099H30.8177V15.8324Z" fill="#F68C21"/>
</svg>
