<svg width="81" height="80" viewBox="0 0 81 80" fill="none" xmlns="http://www.w3.org/2000/svg">
<path d="M16.5 0.5H64.5C73.0604 0.5 80 7.43959 80 16V64C80 72.5604 73.0604 79.5 64.5 79.5H16.5C7.93959 79.5 1 72.5604 1 64V16C1 7.43959 7.93959 0.5 16.5 0.5Z" fill="#1D1F21"/>
<path d="M16.5 0.5H64.5C73.0604 0.5 80 7.43959 80 16V64C80 72.5604 73.0604 79.5 64.5 79.5H16.5C7.93959 79.5 1 72.5604 1 64V16C1 7.43959 7.93959 0.5 16.5 0.5Z" stroke="#27292C"/>
<path d="M56.28 35.1001C56.1138 34.7703 55.8595 34.4929 55.5453 34.2987C55.2311 34.1046 54.8693 34.0012 54.5 34.0001H44.5V22.0001C44.5214 21.5615 44.3979 21.1279 44.1485 20.7665C43.8991 20.405 43.5377 20.1357 43.12 20.0001C42.7184 19.868 42.2853 19.8665 41.8829 19.9958C41.4804 20.1252 41.1293 20.3787 40.88 20.7201L24.88 42.7201C24.6795 43.0098 24.5591 43.3474 24.531 43.6986C24.5029 44.0498 24.5681 44.4022 24.72 44.7201C24.8598 45.0836 25.1027 45.3983 25.4189 45.6257C25.7351 45.8531 26.1109 45.9832 26.5 46.0001H36.5V58.0001C36.5003 58.4218 36.6339 58.8327 36.8818 59.1739C37.1296 59.5152 37.479 59.7693 37.88 59.9001C38.0809 59.9624 38.2896 59.996 38.5 60.0001C38.8155 60.0009 39.1268 59.927 39.4084 59.7845C39.6899 59.642 39.9338 59.4349 40.12 59.1801L56.12 37.1801C56.3355 36.8817 56.4644 36.5296 56.4926 36.1626C56.5209 35.7956 56.4473 35.4279 56.28 35.1001ZM40.5 51.8401V44.0001C40.5 43.4697 40.2893 42.9609 39.9142 42.5859C39.5391 42.2108 39.0304 42.0001 38.5 42.0001H30.5L40.5 28.1601V36.0001C40.5 36.5305 40.7107 37.0392 41.0858 37.4143C41.4608 37.7894 41.9695 38.0001 42.5 38.0001H50.5L40.5 51.8401Z" fill="#F4F5F6"/>
</svg>
