<svg width="80" height="80" viewBox="0 0 80 80" fill="none" xmlns="http://www.w3.org/2000/svg">
<path d="M16 0.5H64C72.5604 0.5 79.5 7.43959 79.5 16V64C79.5 72.5604 72.5604 79.5 64 79.5H16C7.43959 79.5 0.5 72.5604 0.5 64V16C0.5 7.43959 7.43959 0.5 16 0.5Z" fill="#1D1F21"/>
<path d="M16 0.5H64C72.5604 0.5 79.5 7.43959 79.5 16V64C79.5 72.5604 72.5604 79.5 64 79.5H16C7.43959 79.5 0.5 72.5604 0.5 64V16C0.5 7.43959 7.43959 0.5 16 0.5Z" stroke="#27292C"/>
<path d="M54 62H26C22.6 62 20 59.4 20 56V42C20 38.6 22.6 36 26 36H28V30C28 23.4 33.4 18 40 18C46.6 18 52 23.4 52 30V36H54C57.4 36 60 38.6 60 42V56C60 59.4 57.4 62 54 62ZM26 40C24.8 40 24 40.8 24 42V56C24 57.2 24.8 58 26 58H54C55.2 58 56 57.2 56 56V42C56 40.8 55.2 40 54 40H26ZM32 36H48V30C48 25.6 44.4 22 40 22C35.6 22 32 25.6 32 30V36Z" fill="#F4F5F6"/>
</svg>
