<svg width="80" height="80" viewBox="0 0 80 80" fill="none" xmlns="http://www.w3.org/2000/svg">
<path d="M16 0.5H64C72.5604 0.5 79.5 7.43959 79.5 16V64C79.5 72.5604 72.5604 79.5 64 79.5H16C7.43959 79.5 0.5 72.5604 0.5 64V16C0.5 7.43959 7.43959 0.5 16 0.5Z" fill="#1D1F21"/>
<path d="M16 0.5H64C72.5604 0.5 79.5 7.43959 79.5 16V64C79.5 72.5604 72.5604 79.5 64 79.5H16C7.43959 79.5 0.5 72.5604 0.5 64V16C0.5 7.43959 7.43959 0.5 16 0.5Z" stroke="#27292C"/>
<path d="M48 64H32C30.8 64 30 63.2 30 62C30 60.8 30.8 60 32 60H38V55.8C30.2 54.8 24 48 24 40V36C24 34.8 24.8 34 26 34C27.2 34 28 34.8 28 36V40C28 46.6 33.4 52 40 52C46.6 52 52 46.6 52 40V36C52 34.8 52.8 34 54 34C55.2 34 56 34.8 56 36V40C56 48.2 49.8 54.8 42 55.8V60H48C49.2 60 50 60.8 50 62C50 63.2 49.2 64 48 64ZM40 48C35.6 48 32 44.4 32 40V24C32 19.6 35.6 16 40 16C44.4 16 48 19.6 48 24V40C48 44.4 44.4 48 40 48ZM40 20C37.8 20 36 21.8 36 24V40C36 42.2 37.8 44 40 44C42.2 44 44 42.2 44 40V24C44 21.8 42.2 20 40 20Z" fill="#F4F5F6"/>
</svg>
