<svg width="36" height="24" viewBox="0 0 36 24" fill="none" xmlns="http://www.w3.org/2000/svg">
<path fill-rule="evenodd" clip-rule="evenodd" d="M12.1379 6.10501e-07C13.182 1.9378e-05 14.1155 0.65071 14.4771 1.63028L22.7328 24H17.5474L11.8095 8.07802C11.7114 7.80596 11.328 7.80258 11.225 8.07285L5.1602 24H0.174408L8.52912 1.62145C8.89311 0.646461 9.82424 2.4241e-05 10.865 6.10501e-07H12.1379ZM11.8664 7.66528C11.8792 7.67389 11.8918 7.683 11.9041 7.69268C11.8796 7.67334 11.8539 7.65603 11.8271 7.64093L11.8664 7.66528Z" fill="white"/>
<path fill-rule="evenodd" clip-rule="evenodd" d="M33.8182 6.10501e-07C34.6355 6.10501e-07 35.2981 0.66258 35.2981 1.47991V24H30.2934V5.61039H25.2467V2.91964L30.9037 0.240159C31.2374 0.0821151 31.602 4.54225e-06 31.9712 6.10501e-07C32.3061 -2.95651e-06 32.8698 1.07102e-05 33.8182 6.10501e-07Z" fill="white"/>
</svg>
